<svg xmlns="http://www.w3.org/2000/svg" viewBox="0 0 280 280" width="100%" height="100%">
  <path d="M 76 100 L 32 100 L 32 88 A 32 32 0 0 1 64 56 L 76 56 Z" fill="#e94335" />

  <path d="M 76 100 L 76 56 L 160 56 A 32 32 0 0 1 192 88 L 192 100 Z" fill="#f8ba06" />

  <path d="M 76 100 L 76 216 L 64 216 A 32 32 0 0 1 32 184 L 32 100 Z" fill="#4885ee" />

  <path d="M 148 100 L 192 100 L 192 184 A 32 32 0 0 1 160 216 L 76 216 L 76 172 L 148 172 Z" fill="#3fa556" />

  <path d="M 190 100 L 234 65 A 16 16 0 0 1 254 77 L 254 195 A 16 16 0 0 1 234 207 L 190 172 Z" fill="#3fa556" />
</svg>
